HIERARCHY
ROOT Joint1
{
	OFFSET 0.000000 0.000000 0.000000
	CHANNELS 6 Xposition Yposition Zposition Xrotation Yrotation Zrotation
	JOINT Joint2
	{
		OFFSET -0.000000 0.000000 1.456275
		CHANNELS 6 Xposition Yposition Zposition Xrotation Yrotation Zrotation
		JOINT Joint3
		{
			OFFSET -0.000000 0.000002 1.471446
			CHANNELS 6 Xposition Yposition Zposition Xrotation Yrotation Zrotation
			JOINT Joint4
			{
				OFFSET 0.625745 0.000000 0.917755
				CHANNELS 6 Xposition Yposition Zposition Xrotation Yrotation Zrotation
				JOINT Joint5
				{
					OFFSET -0.629534 0.000001 0.940221
					CHANNELS 6 Xposition Yposition Zposition Xrotation Yrotation Zrotation
					JOINT Joint6
					{
						OFFSET -0.000001 0.113772 1.960660
						CHANNELS 6 Xposition Yposition Zposition Xrotation Yrotation Zrotation
						JOINT Joint7
						{
							OFFSET -0.669733 -0.113771 0.388340
							CHANNELS 6 Xposition Yposition Zposition Xrotation Yrotation Zrotation
							End Site
							{
								OFFSET 0.005509 0.005509 0.438980
							}
						}
					}
				}
			}
		}
	}
}
MOTION
Frames: 24
Frame Time: 0.041667
0.000000 0.000000 0.000000 -0.000000 1.019410 57.843233 -0.000000 0.000000 1.456275 -0.000000 -5.234991 -0.000001 -0.000000 0.000002 1.471446 -0.000002 -1.133464 -50.279242 0.625745 0.000000 0.917755 0.000003 150.659206 -0.000001 -0.629534 0.000001 0.940221 -0.000002 1.709737 75.797102 -0.000001 0.113772 1.960660 -88.303882 -218.575110 0.000003 -0.669733 -0.113771 0.388340 -0.953691 3.535609 149.097402 
0.000000 0.000000 0.000000 -0.000000 1.019410 56.604233 -0.000000 0.000000 1.456275 0.000000 -6.086416 0.000001 -0.000000 0.000002 1.471446 -0.000002 -1.133464 -49.203078 0.625745 0.000000 0.917755 0.000004 150.324281 0.000000 -0.629534 0.000001 0.940221 -0.000001 1.709737 74.173204 -0.000001 0.113772 1.960660 -88.303875 -219.677011 0.000002 -0.669733 -0.113771 0.388340 -0.948476 3.536898 148.794851 
0.000000 0.000000 0.000000 -0.000000 1.019410 54.937506 -0.000000 -0.000000 1.456275 0.000000 -7.231771 0.000000 -0.000000 0.000002 1.471446 -0.000002 -1.133464 -47.755392 0.625745 0.000000 0.917755 0.000004 149.873734 -0.000000 -0.629534 0.000001 0.940221 0.000000 1.709741 71.988698 -0.000001 0.113772 1.960661 -88.303875 -221.159326 0.000002 -0.669733 -0.113771 0.388340 -0.941449 3.538595 148.387854 
0.000000 0.000000 0.000000 -0.000000 1.019410 53.066325 -0.000000 -0.000000 1.456275 0.000000 -8.517626 0.000002 -0.000000 0.000002 1.471446 -0.000002 -1.133464 -46.130131 0.625744 0.000000 0.917755 0.000003 149.367904 -0.000001 -0.629533 0.000001 0.940221 -0.000000 1.709734 69.536223 -0.000001 0.113772 1.960661 -88.303875 -222.823474 0.000002 -0.669733 -0.113771 0.388340 -0.933547 3.540438 147.930928 
0.000000 0.000000 0.000000 -0.000000 1.019410 51.263292 -0.000000 -0.000000 1.456275 -0.000000 -9.756649 0.000003 -0.000000 0.000002 1.471446 -0.000001 -1.133463 -44.564061 0.625744 0.000000 0.917755 0.000005 148.880502 -0.000000 -0.629534 0.000001 0.940221 -0.000001 1.709740 67.173066 -0.000000 0.113772 1.960660 -88.303882 -224.427011 0.000002 -0.669733 -0.113771 0.388341 -0.925913 3.542156 147.490613 
0.000000 0.000000 0.000000 -0.000000 1.019410 49.528413 -0.000000 0.000000 1.456275 0.000001 -10.948839 0.000000 -0.000000 0.000002 1.471446 -0.000002 -1.133463 -43.057181 0.625745 0.000000 0.917755 0.000004 148.411541 0.000000 -0.629534 0.000001 0.940221 -0.000000 1.709739 64.899249 -0.000001 0.113772 1.960661 -88.303875 -225.969938 0.000000 -0.669733 -0.113771 0.388341 -0.918559 3.543751 147.066964 
0.000000 0.000000 0.000000 -0.000000 1.019410 47.793532 -0.000000 -0.000000 1.456275 0.000001 -12.141028 -0.000001 -0.000000 0.000002 1.471446 -0.000001 -1.133463 -41.550305 0.625745 0.000000 0.917756 0.000002 147.942553 -0.000000 -0.629534 0.000001 0.940221 -0.000001 1.709737 62.625417 -0.000001 0.113772 1.960661 -88.303875 -227.512864 0.000002 -0.669733 -0.113771 0.388340 -0.911197 3.545298 146.643342 
0.000000 0.000000 0.000000 -0.000000 1.019410 45.990505 -0.000000 -0.000000 1.456275 0.000000 -13.380048 -0.000001 -0.000000 0.000002 1.471445 -0.000002 -1.133464 -39.984235 0.625744 0.000000 0.917755 0.000002 147.455178 -0.000000 -0.629534 0.000001 0.940220 -0.000001 1.709738 60.262274 -0.000001 0.113772 1.960661 -88.303875 -229.116387 0.000000 -0.669733 -0.113771 0.388340 -0.903534 3.546844 146.203027 
0.000000 0.000000 0.000000 -0.000000 1.019410 44.119317 -0.000000 0.000000 1.456275 -0.000000 -14.665905 -0.000002 -0.000000 0.000002 1.471446 -0.000002 -1.133463 -38.358971 0.625744 0.000000 0.917755 0.000003 146.949334 0.000000 -0.629533 0.000001 0.940221 -0.000001 1.709734 57.809792 -0.000001 0.113772 1.960660 -88.303875 -230.780508 0.000005 -0.669733 -0.113771 0.388340 -0.895567 3.548385 145.746101 
0.000000 0.000000 0.000000 -0.000000 1.019410 42.452590 -0.000000 0.000000 1.456275 -0.000001 -15.811260 0.000003 -0.000000 0.000002 1.471445 -0.000001 -1.133462 -36.911288 0.625744 0.000000 0.917754 0.000004 146.498788 -0.000000 -0.629534 0.000001 0.940221 -0.000001 1.709738 55.625296 -0.000001 0.113772 1.960661 -88.303875 -232.262850 0.000005 -0.669733 -0.113771 0.388341 -0.888456 3.549705 145.339090 
0.000000 0.000000 0.000000 -0.000000 1.019410 41.213597 -0.000000 0.000000 1.456275 -0.000001 -16.662677 -0.000002 -0.000000 0.000002 1.471445 -0.000002 -1.133463 -35.835134 0.625744 0.000000 0.917755 0.000003 146.163863 -0.000001 -0.629534 0.000001 0.940221 -0.000000 1.709741 54.001402 -0.000001 0.113772 1.960660 -88.303875 -233.364751 0.000001 -0.669733 -0.113771 0.388340 -0.883169 3.550655 145.036540 
0.000000 0.000000 0.000000 -0.000000 1.019410 40.155679 -0.000000 -0.000000 1.456275 0.000000 -17.389668 0.000001 -0.000000 0.000002 1.471446 -0.000001 -1.133464 -34.916245 0.625744 0.000000 0.917755 0.000002 145.877883 -0.000000 -0.629534 0.000001 0.940221 -0.000000 1.709739 52.614839 -0.000001 0.113772 1.960660 -88.303882 -234.305623 -0.000001 -0.669733 -0.113771 0.388340 -0.878647 3.551442 144.778208 
0.000000 0.000000 0.000000 -0.000000 1.019410 38.914678 -0.000000 0.000000 1.456275 0.000001 -18.242471 0.000002 -0.000000 0.000002 1.471446 0.000001 -1.133463 -33.838332 0.625745 0.000000 0.917755 0.000003 145.542425 -0.000000 -0.629534 0.000001 0.940221 -0.000001 1.709738 50.988315 -0.000001 0.113772 1.960661 -88.303875 -235.409300 0.000005 -0.669733 -0.113771 0.388341 -0.873341 3.552341 144.475139 
0.000000 0.000000 0.000000 -0.000000 1.019410 37.245192 -0.000000 0.000000 1.456275 0.000001 -19.389724 -0.000002 -0.000000 0.000002 1.471445 -0.000002 -1.133462 -32.388258 0.625744 0.000000 0.917755 0.000004 145.091140 -0.000000 -0.629534 0.000001 0.940221 -0.000001 1.709736 48.800189 -0.000001 0.113772 1.960661 -88.303875 -236.894074 0.000004 -0.669733 -0.113771 0.388340 -0.866196 3.553504 144.067459 
0.000000 0.000000 0.000000 -0.000000 1.019410 35.376767 -0.000000 0.000000 1.456275 -0.000000 -20.673680 0.000003 -0.000000 0.000002 1.471446 -0.000001 -1.133465 -30.765395 0.625744 0.000000 0.917755 0.000005 144.586048 -0.000000 -0.629534 0.000001 0.940220 -0.000001 1.709736 46.351337 -0.000001 0.113772 1.960660 -88.303875 -238.555777 0.000003 -0.669733 -0.113771 0.388341 -0.858188 3.554745 143.611189 
0.000000 0.000000 0.000000 -0.000000 1.019410 33.583036 -0.000000 0.000000 1.456275 0.000001 -21.906309 -0.000001 -0.000000 0.000002 1.471446 -0.000000 -1.133465 -29.207398 0.625745 0.000000 0.917755 0.000003 144.101159 -0.000001 -0.629534 0.000001 0.940221 -0.000002 1.709737 44.000372 -0.000001 0.113772 1.960661 -88.303875 -240.151009 0.000004 -0.669733 -0.113771 0.388340 -0.850488 3.555882 143.173169 
0.000000 0.000000 0.000000 -0.000000 1.019410 31.838855 -0.000000 0.000000 1.456275 0.000000 -23.104891 -0.000000 -0.000001 0.000002 1.471446 -0.000001 -1.133466 -27.692447 0.625744 0.000000 0.917755 0.000005 143.629685 -0.000001 -0.629534 0.000001 0.940221 0.000000 1.709739 41.714356 -0.000001 0.113772 1.960660 -88.303875 -241.702199 0.000001 -0.669733 -0.113771 0.388340 -0.842992 3.556928 142.747238 
0.000000 0.000000 0.000000 -0.000000 1.019410 30.069536 -0.000000 0.000000 1.456275 -0.000001 -24.320751 -0.000001 -0.000000 0.000002 1.471446 -0.000000 -1.133462 -26.155651 0.625745 0.000000 0.917755 0.000002 143.151394 -0.000001 -0.629534 0.000001 0.940221 -0.000001 1.709741 39.395380 -0.000002 0.113772 1.960660 -88.303868 -243.275765 -0.000003 -0.669733 -0.113771 0.388340 -0.835390 3.557928 142.315174 
0.000000 0.000000 0.000000 -0.000000 1.019410 28.300945 -0.000000 0.000000 1.456275 -0.000000 -25.536103 0.000001 -0.000001 0.000002 1.471446 -0.000001 -1.133460 -24.619497 0.625744 0.000000 0.917755 0.000002 142.673294 -0.000001 -0.629534 0.000001 0.940221 0.000001 1.709739 37.077375 -0.000001 0.113772 1.960661 -88.303868 -244.848676 0.000002 -0.669733 -0.113771 0.388339 -0.827776 3.558878 141.883287 
0.000000 0.000000 0.000000 -0.000000 1.019410 26.558238 -0.000000 -0.000000 1.456275 0.000000 -26.733669 -0.000001 -0.000000 0.000002 1.471446 0.000001 -1.133463 -23.105821 0.625744 0.000000 0.917755 0.000002 142.202216 -0.000000 -0.629534 0.000001 0.940221 0.000001 1.709738 34.793288 -0.000002 0.113773 1.960661 -88.303875 -246.398555 0.000004 -0.669733 -0.113771 0.388340 -0.820272 3.559755 141.457726 
0.000000 0.000000 0.000000 -0.000000 1.019410 24.763034 -0.000000 -0.000000 1.456275 0.000001 -27.967314 -0.000001 -0.000000 0.000002 1.471446 -0.000001 -1.133463 -21.546551 0.625744 0.000000 0.917755 0.000003 141.716931 -0.000001 -0.629534 0.000001 0.940221 0.000001 1.709737 32.440393 -0.000002 0.113772 1.960661 -88.303875 -247.995126 0.000000 -0.669733 -0.113771 0.388340 -0.812526 3.560599 141.019323 
0.000000 0.000000 0.000000 -0.000000 1.019410 22.889453 -0.000000 0.000000 1.456275 -0.000001 -29.254814 -0.000001 -0.000000 0.000002 1.471446 -0.000000 -1.133461 -19.919207 0.625744 0.000000 0.917755 0.000003 141.210459 -0.000001 -0.629534 0.000001 0.940222 0.000000 1.709737 29.984787 -0.000001 0.113772 1.960661 -88.303882 -249.661391 0.000007 -0.669733 -0.113771 0.388340 -0.804442 3.561418 140.561796 
0.000000 0.000000 0.000000 -0.000000 1.019410 21.225124 -0.000000 0.000000 1.456275 -0.000001 -30.398522 0.000000 -0.000000 0.000002 1.471446 0.000000 -1.133459 -18.473602 0.625745 0.000000 0.917755 0.000004 140.760568 -0.000001 -0.629534 0.000001 0.940221 0.000001 1.709737 27.803422 -0.000002 0.113772 1.960660 -88.303875 -251.141575 0.000010 -0.669733 -0.113771 0.388341 -0.797255 3.562090 140.155359 
0.000000 0.000000 0.000000 -0.000000 1.019410 20.007859 -0.000000 0.000000 1.456275 0.000002 -31.235015 0.000001 -0.000000 0.000002 1.471446 -0.000001 -1.133461 -17.416316 0.625745 0.000000 0.917755 0.000003 140.431503 -0.000000 -0.629533 0.000001 0.940221 -0.000000 1.709735 26.208015 -0.000001 0.113772 1.960660 -88.303882 -252.224160 0.000005 -0.669733 -0.113771 0.388340 -0.791995 3.562549 139.858095 
